<?xml version="1.0" standalone="no"?><!DOCTYPE svg PUBLIC "-//W3C//DTD SVG 1.1//EN" "http://www.w3.org/Graphics/SVG/1.1/DTD/svg11.dtd"><svg class="icon" style="width: 12.5em; height: 4em;vertical-align: middle;fill: currentColor;overflow: hidden;" viewBox="0 0 2560 1024" version="1.1" xmlns="http://www.w3.org/2000/svg"><path d="M565.76 637.44c-28.16 0-56.32 2.56-84.48 2.56-17.92 79.36-171.52 56.32-153.6-43.52 7.68-58.88 89.6-84.48 138.24-40.96 10.24 12.8 15.36 23.04 20.48 48.64 25.6 0 56.32-2.56 81.92-2.56 0-128-143.36-192-250.88-130.56-104.96 58.88-92.16 240.64 17.92 284.16v2.56c-58.88 0-125.44-46.08-138.24-102.4V360.96c46.08-33.28 99.84-71.68 145.92-102.4 2.56 0 2.56 2.56 5.12 2.56-2.56 43.52 0 117.76 2.56 171.52 30.72-28.16 48.64-58.88 99.84-69.12 33.28-7.68 64-2.56 84.48 5.12 148.48 51.2 158.72 243.2 30.72 309.76-2.56 0-10.24 5.12-12.8 7.68l5.12-10.24c0-10.24 2.56-25.6 7.68-38.4zM1889.28 279.04c12.8 2.56 23.04 7.68 30.72 17.92-5.12 20.48-23.04 28.16-17.92 43.52 2.56 7.68 12.8 12.8 17.92 17.92 5.12 7.68 7.68 23.04 15.36 28.16 10.24 7.68 17.92 5.12 33.28 2.56 33.28-5.12 74.24-20.48 115.2-28.16 2.56 2.56 5.12 7.68 7.68 10.24-7.68 12.8-12.8 23.04-23.04 28.16-12.8 5.12-30.72 2.56-43.52 15.36-7.68 10.24-5.12 23.04-5.12 40.96 2.56 35.84 12.8 81.92-2.56 110.08-7.68 0-12.8 2.56-20.48 2.56-20.48-10.24-43.52-20.48-56.32-38.4l2.56-2.56c15.36-2.56 28.16-2.56 43.52-5.12 0-35.84 2.56-74.24 2.56-110.08-2.56 0-7.68 2.56-10.24 2.56-10.24 2.56-40.96 20.48-53.76 2.56-2.56-10.24-7.68-20.48-10.24-30.72l-25.6 25.6c0 15.36-2.56 33.28 0 51.2 5.12 35.84 12.8 76.8-2.56 102.4-2.56 2.56-7.68 2.56-10.24 5.12-5.12-7.68-7.68-10.24-7.68-10.24-5.12-5.12-10.24-10.24-17.92-15.36 0-38.4 15.36-64 5.12-99.84h-2.56c-25.6 7.68-28.16 28.16-53.76 35.84l-7.68-7.68v-15.36c23.04-30.72 53.76-48.64 74.24-84.48 0-2.56-2.56-5.12-2.56-7.68-10.24-2.56-12.8 2.56-20.48-7.68v-7.68c10.24-28.16 35.84-38.4 46.08-71.68z m-975.36 15.36c17.92 2.56 28.16 7.68 38.4 15.36v33.28c7.68 2.56 12.8 5.12 20.48 7.68 15.36-7.68 30.72-12.8 53.76-15.36 7.68 12.8 10.24 15.36 7.68 33.28-28.16 2.56-53.76-2.56-76.8 10.24v2.56c2.56 7.68 2.56 15.36 5.12 23.04 20.48 2.56 58.88 7.68 71.68 25.6 2.56 10.24 2.56 7.68-5.12 15.36-20.48 7.68-38.4 0-53.76-10.24-12.8-7.68-25.6-12.8-33.28-23.04-5.12-7.68-7.68-20.48-10.24-28.16h-7.68c-2.56 2.56-7.68 5.12-10.24 10.24-2.56 10.24-2.56 25.6-5.12 33.28-5.12 12.8-15.36 17.92-17.92 28.16 7.68 5.12 12.8 7.68 17.92 17.92 5.12 0 10.24-2.56 15.36-2.56 2.56-12.8 5.12-20.48 15.36-28.16 10.24 2.56 20.48 7.68 30.72 10.24v2.56c-5.12 12.8-17.92 20.48-15.36 33.28 12.8 40.96 51.2 56.32 84.48 61.44 25.6 5.12 43.52-2.56 56.32 15.36l-10.24 10.24c-17.92 0-46.08 28.16-58.88 17.92-30.72-23.04-61.44-53.76-89.6-76.8-25.6 20.48-46.08 43.52-74.24 51.2-20.48 5.12-40.96 2.56-71.68-5.12v-7.68h15.36c10.24-2.56 23.04-2.56 35.84-5.12 30.72-7.68 58.88-23.04 64-56.32-12.8-10.24-23.04-25.6-38.4-30.72-12.8-5.12-28.16 2.56-33.28-7.68 2.56-2.56 5.12-7.68 7.68-10.24 25.6-2.56 40.96-23.04 51.2-43.52 0-5.12-2.56-10.24-2.56-15.36-28.16 2.56-33.28 5.12-56.32 0-2.56-2.56-2.56-7.68-5.12-10.24 7.68-7.68 2.56-10.24 12.8-7.68 87.04-2.56 71.68-10.24 99.84-20.48v-2.56c-7.68-12.8-20.48-20.48-30.72-30.72-5.12-2.56-2.56-12.8 2.56-20.48z m409.6 0c15.36 5.12 23.04 10.24 25.6 30.72-17.92 12.8-38.4 25.6-51.2 46.08 2.56 10.24 2.56 12.8 7.68 20.48 10.24-10.24 15.36-15.36 33.28-17.92 12.8 15.36 23.04 23.04 7.68 43.52 0 7.68-2.56 10.24-2.56 23.04s7.68 17.92 7.68 35.84c2.56 20.48 0 53.76 2.56 64 20.48-5.12 40.96-10.24 61.44-17.92 2.56 2.56 2.56 5.12 5.12 7.68-38.4 102.4-153.6 23.04-238.08 20.48-20.48 7.68-40.96 12.8-61.44 20.48-12.8-17.92-15.36-17.92-2.56-33.28 10.24 0 23.04-2.56 33.28-2.56 0-5.12 5.12-7.68 5.12-12.8v-12.8c-7.68-15.36-17.92-35.84-20.48-56.32-2.56-12.8 5.12-23.04 5.12-33.28l-5.12-30.72c2.56 0 5.12-2.56 7.68-2.56 7.68-5.12 10.24-5.12 20.48-2.56 5.12 10.24 10.24 17.92 17.92 28.16-2.56 7.68-7.68 17.92-10.24 28.16-2.56 17.92 2.56 35.84 7.68 53.76 2.56 17.92 5.12 35.84 20.48 43.52h17.92c0-2.56 2.56-2.56 2.56-5.12-5.12-15.36-5.12-43.52-5.12-69.12 0-17.92-2.56-35.84 2.56-46.08 10.24 0 23.04 0 28.16-7.68 5.12-5.12 5.12-17.92 7.68-23.04 5.12-7.68 12.8-2.56 15.36-7.68 2.56-5.12 2.56-17.92 2.56-23.04-2.56 0-5.12-2.56-7.68-2.56-10.24 7.68-20.48 17.92-30.72 25.6-2.56-2.56-7.68-5.12-10.24-7.68 2.56-10.24 2.56-17.92 5.12-28.16 15.36 0 30.72 2.56 38.4 0 10.24-2.56 15.36-15.36 23.04-23.04 12.8-15.36 23.04-17.92 33.28-25.6z m230.4 5.12c30.72 5.12 33.28 43.52 46.08 66.56l-7.68 15.36h-2.56c-10.24-7.68-17.92-12.8-28.16-20.48-12.8 7.68-30.72 23.04-10.24 35.84 12.8 2.56 12.8-7.68 25.6 0 2.56 2.56 5.12 2.56 7.68 5.12-2.56 12.8-7.68 20.48-7.68 25.6 0 5.12 10.24 12.8 15.36 23.04-12.8 10.24-20.48 12.8-23.04 35.84 2.56 0 2.56 2.56 5.12 2.56s5.12-2.56 7.68-2.56c2.56-7.68 2.56-15.36 5.12-23.04h10.24c2.56 17.92-2.56 33.28 2.56 46.08 5.12 0 10.24-2.56 15.36-2.56-2.56-25.6-2.56-66.56-2.56-102.4 0-25.6-2.56-48.64 5.12-64 33.28 7.68 43.52-17.92 76.8-23.04 5.12 2.56 10.24 7.68 15.36 10.24-5.12 33.28-12.8 48.64-15.36 97.28-20.48 10.24-20.48 20.48-46.08 25.6 5.12 15.36 17.92 20.48 33.28 10.24 20.48-12.8 20.48-35.84 38.4-48.64h30.72c0 2.56 2.56 2.56 2.56 5.12v10.24c-15.36 7.68-46.08 23.04-46.08 46.08l46.08 30.72c7.68 15.36-2.56 33.28-7.68 43.52-12.8-10.24-38.4-51.2-53.76-35.84-30.72 12.8-17.92 58.88-58.88 64-5.12-2.56-10.24-2.56-15.36-5.12-2.56-7.68-5.12-5.12-5.12-12.8s-2.56-28.16-5.12-28.16c-30.72 15.36-84.48 48.64-117.76 25.6v-2.56c10.24-7.68 25.6-12.8 35.84-20.48-2.56-10.24-7.68-23.04-10.24-33.28 10.24-2.56 17.92-5.12 28.16-7.68v-7.68c-2.56-2.56-5.12-2.56-7.68-5.12l-15.36 7.68c-10.24-7.68-15.36-5.12-17.92-23.04 12.8-2.56 25.6-7.68 38.4-10.24 0-15.36-2.56-17.92-7.68-28.16h-20.48c-12.8 12.8-25.6 25.6-35.84 38.4-15.36 0-25.6 0-33.28-5.12h-5.12v-10.24c12.8-7.68 28.16-15.36 40.96-25.6 23.04-20.48 38.4-48.64 51.2-71.68 7.68-15.36 2.56-20.48 10.24-35.84 5.12-12.8 7.68-7.68 12.8-15.36z m476.16 20.48l15.36 7.68v7.68c-2.56 2.56-5.12 2.56-7.68 5.12-5.12 7.68-40.96 17.92-58.88 15.36-17.92 2.56-23.04-10.24-30.72-25.6h5.12c23.04-2.56 48.64-7.68 76.8-10.24z m-862.72 12.8c7.68 2.56 15.36 7.68 23.04 10.24 2.56 17.92 0 35.84-17.92 23.04-7.68-2.56-5.12-2.56-10.24-7.68-10.24-12.8-5.12-15.36 5.12-25.6z m491.52 15.36l-20.48 20.48c2.56 2.56 5.12 7.68 7.68 10.24 15.36 0 15.36-2.56 25.6-7.68 0-5.12 2.56-10.24 2.56-15.36-5.12-5.12-2.56-5.12-15.36-7.68z m-10.24 48.64c-2.56 12.8-2.56 20.48 2.56 30.72h7.68c2.56-5.12 7.68-10.24 10.24-15.36 0-5.12-2.56-10.24-2.56-15.36h-17.92z m-335.36 5.12c-5.12 2.56-10.24 7.68-17.92 10.24v10.24l10.24 10.24c7.68-2.56 10.24-2.56 15.36-7.68 5.12-10.24 2.56-15.36-7.68-23.04z m-61.44 20.48c-2.56 10.24-5.12 15.36-2.56 28.16h2.56c10.24-5.12 10.24-2.56 15.36-10.24v-17.92h-15.36z m56.32 28.16c-2.56 2.56-5.12 7.68-7.68 10.24l7.68 15.36c5.12-2.56 10.24 2.56 17.92-5.12v-17.92c-7.68-2.56-12.8-2.56-17.92-2.56z m-56.32 12.8c-2.56 0-2.56 2.56-5.12 2.56 2.56 7.68 0 12.8 5.12 20.48h7.68c2.56-2.56 2.56-5.12 5.12-7.68 0-2.56-2.56-7.68-2.56-10.24-2.56-2.56-7.68-2.56-10.24-5.12z m391.68 12.8c-7.68 15.36-10.24 33.28-2.56 43.52 5.12 5.12 0 2.56 10.24 5.12 20.48-12.8 33.28-48.64-7.68-48.64z m-337.92 12.8c-7.68 17.92-12.8 38.4-2.56 56.32h7.68c5.12-7.68 7.68-7.68 5.12-17.92 5.12-12.8 2.56-25.6-2.56-35.84-2.56 0-5.12 0-7.68-2.56z m-51.2 7.68c-2.56 2.56-5.12 7.68-7.68 10.24 2.56 10.24 2.56 23.04 5.12 33.28h10.24c2.56-2.56 5.12-2.56 7.68-5.12 2.56-20.48 5.12-35.84-15.36-38.4z" fill="#ffffff" /><path d="M793.6 663.04v23.04h17.92c10.24 0 15.36-5.12 15.36-12.8s-5.12-10.24-15.36-10.24H793.6z m-12.8 66.56v-76.8h33.28c12.8 0 20.48 7.68 20.48 20.48 0 7.68-2.56 12.8-10.24 15.36 10.24 2.56 15.36 10.24 15.36 17.92 0 15.36-10.24 23.04-25.6 23.04h-33.28z m12.8-33.28v25.6h23.04c10.24 0 15.36-5.12 15.36-12.8s-5.12-12.8-17.92-12.8H793.6z m107.52 12.8H870.4l-7.68 23.04h-10.24l28.16-76.8h12.8l28.16 76.8h-10.24l-10.24-23.04z m-25.6-10.24h23.04l-10.24-33.28-12.8 33.28z m112.64 17.92v-61.44h10.24v76.8h-12.8L947.2 668.16v61.44h-10.24v-76.8h12.8l38.4 64z m40.96-12.8v28.16h-10.24v-76.8h10.24V691.2l38.4-38.4h15.36L1049.6 686.08l33.28 46.08h-12.8l-25.6-38.4-15.36 10.24z m153.6-10.24c0-20.48-10.24-30.72-25.6-30.72-17.92 0-25.6 10.24-25.6 30.72 0 20.48 10.24 30.72 25.6 30.72 15.36-2.56 23.04-12.8 25.6-30.72z m10.24 0c-2.56 25.6-15.36 38.4-38.4 38.4s-35.84-12.8-38.4-38.4c2.56-25.6 12.8-40.96 38.4-40.96 23.04 0 35.84 12.8 38.4 40.96z m28.16 2.56v35.84h-10.24v-76.8h53.76v7.68h-43.52v23.04h38.4v10.24h-38.4z m148.48-20.48h-10.24c-2.56-10.24-10.24-15.36-20.48-15.36-15.36 0-25.6 10.24-25.6 30.72 0 20.48 7.68 30.72 25.6 30.72 12.8 0 17.92-7.68 23.04-20.48h10.24c-2.56 17.92-15.36 28.16-33.28 30.72-23.04 0-33.28-15.36-33.28-40.96s12.8-38.4 35.84-40.96c15.36 2.56 25.6 10.24 28.16 25.6z m79.36 17.92c0-20.48-10.24-30.72-25.6-30.72-17.92 0-25.6 10.24-25.6 30.72 0 20.48 10.24 30.72 25.6 30.72 15.36-2.56 25.6-12.8 25.6-30.72z m10.24 0c-2.56 25.6-15.36 38.4-38.4 38.4s-35.84-12.8-38.4-38.4c2.56-25.6 12.8-40.96 38.4-40.96s38.4 12.8 38.4 40.96z m92.16 35.84h-10.24v-46.08-20.48l-23.04 64H1510.4l-23.04-61.44v66.56h-10.24v-76.8h15.36l23.04 64 23.04-64h15.36v74.24h-2.56z m94.72 0h-10.24v-46.08-20.48l-23.04 64h-10.24l-20.48-61.44v66.56h-10.24v-76.8h15.36l23.04 64 23.04-64h15.36v74.24h-2.56z m71.68-76.8h10.24v48.64c0 17.92-10.24 28.16-30.72 28.16-17.92 0-28.16-10.24-28.16-25.6v-51.2h10.24v48.64c0 12.8 7.68 20.48 20.48 20.48s20.48-7.68 20.48-20.48v-48.64h-2.56z m84.48 64v-61.44h10.24v76.8h-12.8l-38.4-61.44v61.44h-10.24v-76.8h12.8l38.4 61.44z m43.52-64v76.8h-10.24v-76.8h10.24z m87.04 23.04h-10.24c-2.56-10.24-10.24-15.36-20.48-15.36-15.36 0-25.6 10.24-25.6 30.72 0 20.48 7.68 30.72 25.6 30.72 12.8 0 17.92-7.68 23.04-20.48h10.24c-2.56 17.92-15.36 28.16-33.28 30.72-23.04 0-33.28-15.36-33.28-40.96s12.8-38.4 35.84-40.96c15.36 2.56 25.6 10.24 28.16 25.6z m64 33.28h-30.72l-7.68 23.04H1945.6l28.16-76.8h12.8l28.16 76.8h-10.24l-7.68-23.04z m-28.16-10.24h23.04l-10.24-33.28-12.8 33.28z m56.32-35.84v-7.68h61.44v7.68h-25.6v69.12h-10.24v-69.12h-25.6z m89.6-10.24v76.8h-10.24v-76.8h10.24z m84.48 40.96c0-20.48-10.24-30.72-25.6-30.72-17.92 0-25.6 10.24-25.6 30.72 0 20.48 10.24 30.72 25.6 30.72 15.36-2.56 23.04-12.8 25.6-30.72z m10.24 0c-2.56 25.6-15.36 38.4-38.4 38.4s-35.84-12.8-38.4-38.4c2.56-25.6 12.8-40.96 38.4-40.96 23.04 0 35.84 12.8 38.4 40.96z m69.12 23.04v-61.44h10.24v76.8h-12.8l-38.4-61.44v61.44H2227.2v-76.8h12.8L2278.4 716.8z m87.04-40.96H2355.2c0-10.24-7.68-15.36-20.48-15.36-10.24 0-17.92 5.12-17.92 12.8 0 5.12 2.56 7.68 10.24 10.24l23.04 5.12c10.24 2.56 17.92 10.24 17.92 20.48 0 15.36-10.24 20.48-30.72 23.04-10.24 0-17.92-2.56-23.04-7.68-5.12-5.12-7.68-10.24-7.68-20.48h10.24c0 12.8 7.68 17.92 20.48 17.92s20.48-5.12 20.48-12.8-5.12-12.8-17.92-12.8l-15.36-2.56c-10.24-2.56-15.36-7.68-15.36-17.92 0-15.36 10.24-23.04 25.6-23.04 20.48 0 30.72 7.68 30.72 23.04z" fill="#ffffff" /></svg>